# xmcd
#
# Track frame offsets:
#	150
#	13627
#	30717
#	43717
#	59177
#	73312
#	98052
#	118067
#	140225
#	158190
#	175865
#	196515
#	218240
# Disc length: 3136 seconds
# Revision: 1
# Processed by: cddbd v1.5.2PL0 Copyright (c) Steve Scherf et al.
#
# Submitted via: libkcddb 0.31
#
DISCID=c20c3e0d
DTITLE=Bumba-boi da Maioba - Isso é Maioba
DYEAR=2004
DGENRE=
TTITLE0=Chagas - Um Mundo Novo - Abertura
TTITLE1=Chagas - A Companheira - Guarnicé
TTITLE2=Chagas - Isso é Maioba - Lá Vai
TTITLE3=Chagas - Eu Venho de Longe - Chegada
TTITLE4=Chagas - A Fúria Creativa da Maioba
TTITLE5=Chagas - A Força Feminina
TTITLE6=Chagas - Um Vendaval Que Passou
TTITLE7=Chagas - A Base de Alcântara
TTITLE8=Chagas - Xô Agoreiro
TTITLE9=Chagas - Adeus Fifi
TTITLE10=Chagas - BF Te Abandonou
TTITLE11=Chagas - Ponto de Concentração
TTITLE12=É Hora da Nossa Partida
EXTD=
EXTT0=
EXTT1=
EXTT2=
EXTT3=
EXTT4=
EXTT5=
EXTT6=
EXTT7=
EXTT8=
EXTT9=
EXTT10=
EXTT11=
EXTT12=
PLAYORDER=
